<svg xmlns="http://www.w3.org/2000/svg" width="73.434" height="85" viewBox="0 0 73.434 85">
  <g id="Group_61" data-name="Group 61" transform="translate(-1572.289 -4058)">
    <path id="Path_55" data-name="Path 55" d="M97.4,33.924l-1.682-3.329a.436.436,0,0,0-.652-.223L34.953,60.418c-.292.137-.429.051-.429-.257V44.631a.354.354,0,0,0-.395-.395H30.252a.444.444,0,0,0-.5.5v17.9a.557.557,0,0,1-.343.549L24.3,65.755a.472.472,0,0,0-.206.618l1.75,3.415a.436.436,0,0,0,.652.223l2.8-1.39c.292-.137.429-.051.429.275q.051,13.9,0,27.833c0,3.586,2.78,4.753,6.074,4.753q24.71,0,49.454,0c3.483,0,6.555-.858,6.538-4.77q-.026-29.5,0-59.011a.544.544,0,0,1,.326-.532L97.139,34.7A.512.512,0,0,0,97.4,33.924ZM67.934,96.419a.308.308,0,0,1-.309.309H53.932a.308.308,0,0,1-.309-.309V73.167a.308.308,0,0,1,.309-.309H67.625a.308.308,0,0,1,.309.309Zm19.1-.086a.354.354,0,0,1-.395.395H73.116a.354.354,0,0,1-.395-.395q-.051-10.785,0-21.5c0-3.38-.721-6.727-4.582-6.727H54.618c-3.5.017-5.748,1.424-5.748,5.062q-.026,11.583-.034,23.148a.364.364,0,0,1-.412.412H34.936a.354.354,0,0,1-.395-.395V66.492a.756.756,0,0,1,.429-.721L86.586,39.964c.292-.154.429-.051.429.275V96.333Z" transform="translate(1548.241 4034.604)" fill="#b6bfa8"/>
    <rect id="Rectangle_48" data-name="Rectangle 48" width="73" height="85" transform="translate(1572.506 4058)" fill="none"/>
  </g>
</svg>
