<svg xmlns="http://www.w3.org/2000/svg" width="76" height="86.817" viewBox="0 0 76 86.817">
  <g id="Group_51" data-name="Group 51" transform="translate(-1.612 -4)">
    <rect id="Rectangle_25" data-name="Rectangle 25" width="3" height="4" transform="translate(46 8)" fill="#b6bfa8"/>
    <rect id="Rectangle_26" data-name="Rectangle 26" width="3" height="3" transform="translate(70 32)" fill="#b6bfa8"/>
    <rect id="Rectangle_27" data-name="Rectangle 27" width="3" height="4" transform="translate(56 8)" fill="#b6bfa8"/>
    <path id="Path_56" data-name="Path 56" d="M59.654,14.16,2.945,36.371a1.536,1.536,0,0,0,0,2.835L27.362,48.5l9.294,24.416a1.378,1.378,0,0,0,1.418.945,1.6,1.6,0,0,0,1.418-.945L61.7,16.208a1.716,1.716,0,0,0-.315-1.733A1.438,1.438,0,0,0,59.654,14.16Z" transform="translate(0 5.75)" fill="#b6bfa8"/>
    <rect id="Rectangle_28" data-name="Rectangle 28" width="3" height="3" transform="translate(70 23)" fill="#b6bfa8"/>
    <rect id="Rectangle_29" data-name="Rectangle 29" width="2" height="4" transform="translate(9 8)" fill="#b6bfa8"/>
    <rect id="Rectangle_30" data-name="Rectangle 30" width="3" height="3" transform="translate(70 70)" fill="#b6bfa8"/>
    <rect id="Rectangle_31" data-name="Rectangle 31" width="3" height="3" transform="translate(70 61)" fill="#b6bfa8"/>
    <rect id="Rectangle_32" data-name="Rectangle 32" width="3" height="3" transform="translate(70 51)" fill="#b6bfa8"/>
    <rect id="Rectangle_33" data-name="Rectangle 33" width="3" height="4" transform="translate(37 8)" fill="#b6bfa8"/>
    <rect id="Rectangle_34" data-name="Rectangle 34" width="3" height="3" transform="translate(70 42)" fill="#b6bfa8"/>
    <path id="Path_57" data-name="Path 57" d="M53.027,4H43.575A1.579,1.579,0,0,0,42,5.575v9.452A1.488,1.488,0,0,0,43.575,16.6h9.452A1.579,1.579,0,0,0,54.6,15.027V5.575A1.694,1.694,0,0,0,53.027,4Z" transform="translate(23.01 0)" fill="#b6bfa8"/>
    <rect id="Rectangle_35" data-name="Rectangle 35" width="3" height="4" transform="translate(18 8)" fill="#b6bfa8"/>
    <rect id="Rectangle_36" data-name="Rectangle 36" width="3" height="4" transform="translate(27 8)" fill="#b6bfa8"/>
    <rect id="Rectangle_48" data-name="Rectangle 48" width="76" height="85" transform="translate(1.612 5.817)" fill="none"/>
  </g>
</svg>
