<svg xmlns="http://www.w3.org/2000/svg" width="67" height="85" viewBox="0 0 67 85">
  <g id="Group_29" data-name="Group 29" transform="translate(-191.572 -60.127)">
    <path id="Path_52" data-name="Path 52" d="M230.464,74.729c1.346,0,2.961.269,4.307.269V71.23h-8.883V75C227.5,75,228.849,74.729,230.464,74.729Zm7.537.808a33.142,33.142,0,0,1-7.537,65.408,33.142,33.142,0,0,1-7.537-65.408V71.23h-1.615a3.911,3.911,0,0,1-4.038-3.768V62.347a4.14,4.14,0,0,1,4.038-4.038h18.3a3.911,3.911,0,0,1,3.768,4.038v5.114a3.68,3.68,0,0,1-3.768,3.768H238Zm-7.537,11.036h0v21.264l17.227-12.382a21.93,21.93,0,0,1,4.038,12.382,21.264,21.264,0,1,1-21.264-21.264Zm9.152-18.3a1.213,1.213,0,0,0,.808-.808V62.347a.859.859,0,0,0-.808-.808h-18.3a.714.714,0,0,0-.808.808v5.114a.859.859,0,0,0,.808.808Zm-9.152,12.113a27.456,27.456,0,1,1-27.724,27.455A27.571,27.571,0,0,1,230.464,80.382Zm0,2.961a24.5,24.5,0,1,0,24.225,24.494A24.584,24.584,0,0,0,230.464,83.343Zm0-5.383a29.878,29.878,0,1,0,29.878,29.878A30.041,30.041,0,0,0,230.464,77.959Z" transform="translate(-5.392 1.817)" fill="#b6bfa8" fill-rule="evenodd"/>
    <rect id="Rectangle_48" data-name="Rectangle 48" width="67" height="85" transform="translate(191.572 60.127)" fill="none"/>
  </g>
</svg>
