<svg id="Group_58" data-name="Group 58" xmlns="http://www.w3.org/2000/svg" width="94.425" height="81.733" viewBox="0 0 94.425 81.733">
  <path id="Path_1" data-name="Path 1" d="M456.158,126.612v63.1l19.14,9.314V117.3Z" transform="translate(-395.87 -117.297)" fill="#fff"/>
  <path id="Path_2" data-name="Path 2" d="M437.333,158.164v28.91l13.731,11.956V117.3l-13.731,11.956Z" transform="translate(-400.716 -117.297)" fill="#fff"/>
  <path id="Path_3" data-name="Path 3" d="M420.456,158.065v23.644l11.9,16.739V117.682l-11.9,17.456Z" transform="translate(-405.061 -117.198)" fill="#fff"/>
  <path id="Path_4" data-name="Path 4" d="M408.213,158.065v19.1L415,198.448V117.682l-6.785,21.282Z" transform="translate(-408.213 -117.198)" fill="#fff"/>
  <g id="Group_2" data-name="Group 2" transform="translate(84.659 71.47)">
    <g id="Group_1" data-name="Group 1" transform="translate(1.9 3.581)">
      <path id="Path_5" data-name="Path 5" d="M479.3,177.5h-.807v2.311h-.639V177.5h-.8v-.518h2.25Z" transform="translate(-477.05 -176.983)" fill="#fff"/>
      <path id="Path_6" data-name="Path 6" d="M482.365,179.812h-.629v-1.694c0-.182.008-.385.024-.6h-.016a2.906,2.906,0,0,1-.089.375l-.663,1.924h-.521l-.675-1.905a3.822,3.822,0,0,1-.088-.394h-.018c.016.278.025.523.025.733v1.565h-.574v-2.829h.933l.577,1.676a2.233,2.233,0,0,1,.1.4h.013a4.064,4.064,0,0,1,.112-.409l.578-1.672h.909Z" transform="translate(-476.511 -176.983)" fill="#fff"/>
    </g>
    <path id="Path_7" data-name="Path 7" d="M480.422,183.9a4.883,4.883,0,1,1,4.884-4.884A4.889,4.889,0,0,1,480.422,183.9Zm0-9.262a4.378,4.378,0,1,0,4.378,4.378A4.383,4.383,0,0,0,480.422,174.639Z" transform="translate(-475.539 -174.135)" fill="#fff"/>
  </g>
</svg>
